<?xml version="1.0" standalone="no"?><!DOCTYPE svg PUBLIC "-//W3C//DTD SVG 1.1//EN" "http://www.w3.org/Graphics/SVG/1.1/DTD/svg11.dtd"><svg t="1652094819872" class="icon" viewBox="0 0 1024 1024" version="1.1" xmlns="http://www.w3.org/2000/svg" p-id="14313" xmlns:xlink="http://www.w3.org/1999/xlink" width="200" height="200"><defs><style type="text/css">@font-face { font-family: feedback-iconfont; src: url("//at.alicdn.com/t/font_1031158_u69w8yhxdu.woff2?t=1630033759944") format("woff2"), url("//at.alicdn.com/t/font_1031158_u69w8yhxdu.woff?t=1630033759944") format("woff"), url("//at.alicdn.com/t/font_1031158_u69w8yhxdu.ttf?t=1630033759944") format("truetype"); }
</style></defs><path d="M860.094783 529.595754v9.23905c0 33.375667-4.795355 65.664388-13.746683 96.162842l-3.644469-1.086947-144.627892-63.970029-144.595923 63.970029-144.595922-63.970029-144.595923 63.970029-144.595923-63.970029-8.951328 0.799226c-0.99104-10.485842-1.502544-21.131529-1.502544-31.905092v-73.209079l150.158533 63.970029 150.158534-63.970029 150.190503 63.970029 150.158534-63.970029 150.190503 63.970029z" fill="#42BC90" p-id="14314"></path><path d="M860.094783 387.493416v142.102338l-150.190503-63.970029-150.158534 63.970029-150.190503-63.970029-150.158534 63.970029-150.158533-63.970029v-78.132309H859.167681zM842.703631 633.910699l3.644469 1.086947c-26.981861 92.358528-91.94293 168.540726-176.820705 210.452125-45.619806 22.602104-96.994037 35.26184-151.309419 35.26184h-67.102994c-54.315382 0-105.689613-12.659736-151.309419-35.26184-103.867378-51.310293-177.907652-153.89891-189.064843-274.709875l8.951328-0.799226 144.595923 63.970029 144.595923-63.970029 144.595922 63.970029 144.595923-63.970029 144.627892 63.970029z" fill="#FFB578" p-id="14315"></path><path d="M669.527395 845.449771l3.132965 6.329867-34.750335 109.877557h-306.487091l-34.750336-109.877557 3.132965-6.329867c45.619806 22.602104 96.994037 35.26184 151.309419 35.26184h67.102994c54.315382 0 105.689613-12.659736 151.309419-35.26184z" fill="#FF4893" p-id="14316"></path><path d="M540.979926 379.629034v7.864382H178.003559v-7.864382c0-103.643595 81.265274-187.658206 181.488183-187.658206s181.488183 84.014611 181.488184 187.658206z" fill="#5FCEFF" p-id="14317"></path><path d="M518.217976 903.089932h-67.102994c-56.652318 0-110.903762-12.646948-161.245393-37.589186-112.694028-55.670869-189.880054-167.834211-201.411283-292.705242-1.061372-11.201948-1.598452-22.643664-1.598451-33.963897v-151.341388a22.378321 22.378321 0 1 1 44.756642 0v151.341388c0 9.91999 0.473142 19.945478 1.40344 29.798333 10.118198 109.545078 77.82221 207.90739 176.696026 256.75287 44.133246 21.870013 91.699966 32.950479 141.399019 32.95048h67.102994c49.702251 0 97.265774-11.080466 141.376642-32.937692 80.079223-39.539296 140.312073-111.220255 165.276688-196.676669a319.066904 319.066904 0 0 0 12.848353-89.887322v-151.341388a22.378321 22.378321 0 1 1 44.756642 0v151.341388c0 34.862227-4.929624 69.337629-14.651406 102.467135-28.462027 97.425619-97.131504 179.157641-188.390297 224.214792-50.312859 24.92945-104.564303 37.576398-161.216622 37.576398z" fill="#4F46A3" p-id="14318"></path><path d="M859.167681 409.871737H108.343043a22.378321 22.378321 0 1 1 0-44.756642h750.824638a22.378321 22.378321 0 1 1 0 44.756642zM637.910025 984.038712h-306.487091a22.378321 22.378321 0 0 1-21.336131-15.632855l-34.750335-109.877556a22.371927 22.371927 0 0 1 14.587468-28.081596c11.783784-3.740377 24.357204 2.803684 28.084793 14.587468l29.807924 94.244701h273.699653l29.807924-94.244701a22.36873 22.36873 0 0 1 28.081596-14.587468 22.371927 22.371927 0 0 1 14.587468 28.081596l-34.750336 109.877556a22.36873 22.36873 0 0 1-21.332933 15.632855z" fill="#4F46A3" p-id="14319"></path><path d="M627.542468 409.878131a22.371927 22.371927 0 0 1-20.568874-31.169805l139.065281-325.700477a22.378321 22.378321 0 1 1 41.160126 17.573375l-139.065281 325.700478a22.384715 22.384715 0 0 1-20.591252 13.596429zM708.667079 409.874934a22.378321 22.378321 0 0 1-18.753033-34.564916l199.330099-307.126471a22.378321 22.378321 0 0 1 37.547625 24.366795l-199.330098 307.126471a22.36873 22.36873 0 0 1-18.794593 10.198121zM860.085192 551.980469a22.320777 22.320777 0 0 1-8.759514-1.79666l-141.421398-60.236046-141.389429 60.23285a22.362336 22.362336 0 0 1-17.53821 0.003196l-141.418201-60.236046-141.389429 60.23285a22.343155 22.343155 0 0 1-17.541406 0l-150.158534-63.97003a22.378321 22.378321 0 1 1 17.544603-41.17611L259.396709 505.270519l141.386233-60.232849a22.36873 22.36873 0 0 1 17.541406 0l141.421398 60.232849 141.389429-60.232849a22.362336 22.362336 0 0 1 17.53821 0l150.190503 63.970029a22.378321 22.378321 0 0 1 11.818951 29.35716 22.387912 22.387912 0 0 1-20.597647 13.61561z" fill="#4F46A3" p-id="14320"></path><path d="M842.690843 656.295414a22.244051 22.244051 0 0 1-9.037645-1.921339l-135.574262-59.964309-135.542293 59.964309a22.352746 22.352746 0 0 1-18.107259 0L408.883894 594.412962 273.3416 654.374075c-5.764016 2.551129-12.340046 2.557522-18.107258 0l-144.595923-63.970029c-11.304249-4.996759-16.4129-18.215953-11.409747-29.517005s18.21915-16.403309 29.517006-11.409747l135.542293 59.964309 135.542293-59.964309a22.352746 22.352746 0 0 1 18.107259 0l135.542293 59.964309 135.542294-59.964309a22.346352 22.346352 0 0 1 18.104062 0l144.627891 63.970029a22.371927 22.371927 0 0 1 11.409747 29.517005 22.378321 22.378321 0 0 1-20.472967 13.331086zM540.979926 402.007355a22.378321 22.378321 0 0 1-22.378321-22.378321c0-91.134114-71.377253-165.279885-159.109863-165.279885s-159.109862 74.142574-159.109862 165.279885a22.378321 22.378321 0 1 1-44.756642 0c0-115.814205 91.453804-210.036527 203.866504-210.036527 112.4127 0 203.866504 94.222322 203.866505 210.036527a22.378321 22.378321 0 0 1-22.378321 22.378321z" fill="#4F46A3" p-id="14321"></path></svg>