<?xml version="1.0" standalone="no"?><!DOCTYPE svg PUBLIC "-//W3C//DTD SVG 1.1//EN" "http://www.w3.org/Graphics/SVG/1.1/DTD/svg11.dtd"><svg t="1652094827842" class="icon" viewBox="0 0 1024 1024" version="1.1" xmlns="http://www.w3.org/2000/svg" p-id="14486" xmlns:xlink="http://www.w3.org/1999/xlink" width="200" height="200"><defs><style type="text/css">@font-face { font-family: feedback-iconfont; src: url("//at.alicdn.com/t/font_1031158_u69w8yhxdu.woff2?t=1630033759944") format("woff2"), url("//at.alicdn.com/t/font_1031158_u69w8yhxdu.woff?t=1630033759944") format("woff"), url("//at.alicdn.com/t/font_1031158_u69w8yhxdu.ttf?t=1630033759944") format("truetype"); }
</style></defs><path d="M471.555413 283.296427c-44.199253-64.320853-69.75488-130.010453-157.569706-128.703147-83.08736 3.781973-104.106667 54.8864-155.12576 135.529813C107.63264 366.83776 68.266667 468.527787 68.266667 592.339627c0 207.807147 104.639147 294.980267 250.15296 296.106666 145.5104 1.119573 250.149547-88.29952 250.149546-296.106666 0.006827-128.02048-40.922453-234.07616-97.01376-309.0432z" fill="#009900" p-id="14487"></path><path d="M321.119573 908.936533h-0.006826l-2.850134-0.01024c-81.134933-0.631467-148.39808-27.293013-194.515626-77.11744C73.342293 777.35936 47.786667 696.79104 47.786667 592.339627c0-112.92672 32.47104-221.293227 93.9008-313.381547 5.751467-9.09312 11.117227-17.80736 16.233813-26.115413 41.07264-66.686293 70.74816-114.868907 155.136-118.708907 0.208213-0.01024 0.41984-0.017067 0.628053-0.02048 85.572267-1.20832 121.033387 54.330027 155.42272 108.090027 6.12352 9.5744 12.455253 19.473067 19.104427 29.160106 65.041067 87.10144 100.850347 201.07264 100.84352 320.976214 0 104.04864-25.2416 184.55552-75.01824 239.28832-46.001493 50.57536-112.715093 77.308587-192.918187 77.308586zM314.55232 175.066453c-62.450347 2.966187-82.295467 35.188053-121.757013 99.25632-5.239467 8.506027-10.734933 17.42848-16.62976 26.74688a11.236693 11.236693 0 0 1-0.27648 0.423254C118.882987 386.870613 88.746667 487.44448 88.746667 592.339627c0 179.152213 79.476053 274.46272 229.829973 275.626666l2.536107 0.01024c69.33504 0 124.04736-21.500587 162.618026-63.911253 42.704213-46.953813 64.3584-118.19008 64.3584-211.725653 0.006827-111.271253-32.996693-216.66816-92.931413-296.77568a23.763627 23.763627 0 0 1-0.48128-0.669014c-7.113387-10.349227-13.704533-20.65408-20.077227-30.621013-33.133227-51.797333-57.074347-89.22112-118.050133-89.22112l-1.9968 0.013653z" fill="#1B7C00" p-id="14488"></path><path d="M793.7024 806.058667c64.320853-44.199253 130.00704-69.75488 128.703147-157.566294-3.785387-83.08736-54.8864-104.106667-135.5264-155.12576C710.16448 442.14272 608.47104 402.773333 484.655787 402.773333c-207.807147 0-294.987093 104.639147-296.106667 250.15296-1.119573 145.506987 88.29952 250.146133 296.106667 250.146134 128.017067 0.006827 234.069333-40.91904 309.046613-97.01376z" fill="#FFFF76" p-id="14489"></path><path d="M484.693333 923.552427h-0.006826v-20.48l-0.006827 20.48h-0.027307c-109.656747 0-192.979627-27.93472-247.647573-83.022507-45.69088-46.042453-69.5296-110.97088-68.939093-187.76064 0.62464-81.134933 27.2896-148.39808 77.114026-194.515627C299.636053 407.852373 380.204373 382.293333 484.655787 382.293333c112.92672 0 221.289813 32.47104 313.381546 93.897387 9.09312 5.751467 17.80736 11.117227 26.115414 16.233813 66.68288 41.069227 114.865493 70.74816 118.71232 155.132587l0.017066 0.631467c1.26976 85.466453-54.3232 121.02656-108.0832 155.41248-9.577813 6.126933-19.473067 12.458667-29.16352 19.10784-87.0912 65.030827-201.058987 100.84352-320.94208 100.84352zM484.655787 423.253333c-179.15904 0-274.469547 79.47264-275.626667 229.829974-0.512 66.57024 18.684587 119.927467 57.050453 158.593706 46.697813 47.056213 120.234667 70.915413 218.576214 70.915414h0.03072c111.254187 0 216.640853-33.00352 296.74496-92.934827 0.218453-0.16384 0.443733-0.324267 0.669013-0.48128 10.35264-7.113387 20.660907-13.704533 30.62784-20.08064 52.237653-33.41312 90.002773-57.565867 89.204053-119.985493-2.94912-62.501547-35.1744-82.33984-99.259733-121.811627a2612.616533 2612.616533 0 0 1-27.16672-16.90624C715.967147 470.644053 617.17504 423.253333 484.655787 423.253333z" fill="#1B7C00" p-id="14490"></path><path d="M919.73632 649.792853a33.860267 17.998507 90 1 0 35.997013 0 33.860267 17.998507 90 1 0-35.997013 0Z" fill="#1B7C00" p-id="14491"></path><path d="M278.145707 138.92608a33.856853 17.998507 0 1 0 67.713706 0 33.856853 17.998507 0 1 0-67.713706 0Z" fill="#1B7C00" p-id="14492"></path><path d="M133.720747 631.046827a20.48 20.48 0 0 1-20.476587-20.31616c-0.68608-85.507413 11.567787-142.44864 45.213013-210.100907a20.46976 20.46976 0 0 1 27.456854-9.216 20.48 20.48 0 0 1 9.216 27.456853c-30.856533 62.040747-41.56416 112.15872-40.925867 191.532374a20.483413 20.483413 0 0 1-20.31616 20.64384h-0.167253z" fill="#FFFFFF" p-id="14493"></path><path d="M204.94336 354.53952m-24.869547 0a24.869547 24.869547 0 1 0 49.739094 0 24.869547 24.869547 0 1 0-49.739094 0Z" fill="#FFFFFF" p-id="14494"></path><path d="M561.076907 653.561173c0 64.37888-83.049813 116.57216-147.432107 116.57216s-116.575573-52.19328-116.575573-116.57216 52.19328-116.57216 116.575573-116.57216 147.432107 52.189867 147.432107 116.57216z" fill="#9B680E" p-id="14495"></path><path d="M413.6448 790.613333c-75.574613 0-137.055573-61.484373-137.055573-137.05216s61.484373-137.05216 137.055573-137.05216c76.055893 0 167.912107 61.1328 167.912107 137.05216s-91.859627 137.05216-167.912107 137.05216z m0-233.147733c-52.988587 0-96.095573 43.106987-96.095573 96.09216s43.106987 96.09216 96.095573 96.09216c55.9616 0 126.952107-45.243733 126.952107-96.09216s-70.99392-96.09216-126.952107-96.09216z" fill="#7A5D00" p-id="14496"></path></svg>