<?xml version="1.0" standalone="no"?><!DOCTYPE svg PUBLIC "-//W3C//DTD SVG 1.1//EN" "http://www.w3.org/Graphics/SVG/1.1/DTD/svg11.dtd"><svg t="1652094860882" class="icon" viewBox="0 0 1024 1024" version="1.1" xmlns="http://www.w3.org/2000/svg" p-id="15781" xmlns:xlink="http://www.w3.org/1999/xlink" width="200" height="200"><defs><style type="text/css">@font-face { font-family: feedback-iconfont; src: url("//at.alicdn.com/t/font_1031158_u69w8yhxdu.woff2?t=1630033759944") format("woff2"), url("//at.alicdn.com/t/font_1031158_u69w8yhxdu.woff?t=1630033759944") format("woff"), url("//at.alicdn.com/t/font_1031158_u69w8yhxdu.ttf?t=1630033759944") format("truetype"); }
</style></defs><path d="M903.39555555 212.3776C813.78417778 94.65173333 672.19911111 18.7392 512.91022222 18.7392c-163.03217778 0-307.46168889 79.4624-396.62933333 201.8304-59.17582222 80.97564445-94.06008889 180.91804445-94.06008889 288.95004445 0 270.97315555 219.71626667 490.68942222 490.68942222 490.68942222 270.97315555 0 490.68942222-219.71626667 490.68942223-490.68942222 0.09102222-111.68426667-37.28497778-214.64177778-100.2040889-297.14204445zM512.91022222 362.95111111c80.896 0 146.56853333 65.58151111 146.56853333 146.56853334 0 80.80497778-65.58151111 146.47751111-146.56853333 146.4775111-80.896 0-146.56853333-65.58151111-146.56853333-146.4775111C366.43271111 428.53262222 432.0256 362.95111111 512.91022222 362.95111111z" fill="#FEB467" p-id="15782"></path><path d="M903.39555555 212.3776C813.78417778 94.65173333 672.19911111 18.7392 512.91022222 18.7392c-163.03217778 0-307.46168889 79.4624-396.62933333 201.8304-15.21208889 43.33795555-23.58613333 89.96408889-23.58613334 138.55857778 0 231.28746667 187.41475555 418.6112 418.6112 418.6112s418.6112-187.32373333 418.6112-418.6112c0-51.62097778-9.34115555-101.09155555-26.5216-146.75057778zM512.91022222 655.90613333c-80.896 0-146.56853333-65.58151111-146.56853333-146.47751111s65.58151111-146.56853333 146.56853333-146.56853333c80.896 0 146.56853333 65.58151111 146.56853333 146.56853333 0 80.896-65.58151111 146.47751111-146.56853333 146.47751111z" fill="#FED9B4" p-id="15783"></path><path d="M903.39555555 212.3776C813.78417778 94.65173333 672.19911111 18.7392 512.91022222 18.7392c-163.03217778 0-307.46168889 79.4624-396.62933333 201.8304-56.77511111 77.77848889-91.21564445 172.90808889-93.88942222 275.8656 0.09102222 2.49173333 0.18204445 4.80142222 0.26168888 7.29315555 10.8544-125.7472 161.6896-133.66613333 163.91964445 0 15.74684445 106.96248889 164.80711111 110.43271111 180.11022222 14.85937778v-0.09102222c-0.18204445-3.02648889-0.26168889-5.96195555-0.26168889-9.07946666 0-4.44871111 0.18204445-8.8064 0.62577778-13.17546667-0.44373333-4.44871111-0.62577778-8.8064-0.62577778-13.34613333 0-80.896 65.58151111-146.56853333 146.56853334-146.56853334 80.896 0 146.56853333 65.58151111 146.56853333 146.56853334 0 4.53973333-0.18204445 8.89742222-0.62577778 13.34613333 0.09102222 0.53475555 0.09102222 0.97848889 0.09102223 1.51324444 17.70382222-98.33813333 153.6-75.01368889 162.4064 5.87093333 10.59271111 98.15608889 144.0768 125.7472 181.89653333 0 0.09102222-2.58275555 0.18204445-4.98346667 0.26168889-7.56622222-2.92408889-106.32533333-39.67431111-204.48142222-100.19271112-283.68213333z" fill="#A14C36" p-id="15784"></path><path d="M367.94595555 530.24995555c-1.51324445 110.52373333-164.80711111 112.21902222-181.36177777 0-2.23004445-133.66613333-153.06524445-125.7472-163.91964445 0-0.26168889-6.84942222-0.44373333-13.78986667-0.44373333-20.7303111 0-4.35768889 0.09102222-8.71537778 0.18204445-13.08444445 0.09102222 2.49173333 0.18204445 4.80142222 0.26168888 7.29315555 10.8544-125.7472 161.6896-133.66613333 163.91964445 0 15.74684445 106.96248889 164.80711111 110.43271111 180.11022222 14.85937778 0.27306667 4.01635555 0.7168 7.83928889 1.25155555 11.66222222z" fill="#814A3C" p-id="15785"></path><path d="M659.47875555 483.08906667c0 4.53973333-0.18204445 8.89742222-0.62577777 13.34613333-6.58773333-74.752-69.41582222-133.39306667-145.94275556-133.39306667s-139.264 58.64106667-145.94275555 133.39306667c-0.44373333-4.44871111-0.62577778-8.8064-0.62577778-13.34613333 0-80.896 65.58151111-146.56853333 146.56853333-146.56853334 80.98702222 0 146.56853333 65.58151111 146.56853333 146.56853334z" fill="#703C32" p-id="15786"></path><path d="M1003.69066667 509.51964445c0 6.94044445-0.18204445 13.88088889-0.44373334 20.7303111-37.81973333 125.7472-171.30382222 98.15608889-181.89653333 0-8.98844445-82.48888889-150.03875555-105.09653333-163.38488889 0 0.97848889-6.7584 1.51324445-13.69884445 1.51324444-20.7303111 0-3.91395555-0.18204445-7.73688889-0.53475555-11.66222223 17.70382222-98.33813333 153.6-75.01368889 162.4064 5.87093333 10.59271111 98.15608889 144.0768 125.7472 181.89653333 0 0.09102222-2.58275555 0.18204445-4.98346667 0.26168889-7.56622222 0.09102222 4.46008889 0.18204445 8.9088 0.18204445 13.35751112z" fill="#814A3C" p-id="15787"></path><path d="M903.39555555 212.3776C813.78417778 94.65173333 672.19911111 18.7392 512.91022222 18.7392c-163.03217778 0-307.46168889 79.4624-396.62933333 201.8304-56.77511111 77.77848889-91.21564445 172.90808889-93.88942222 275.8656 0.09102222 2.49173333 0.18204445 4.80142222 0.26168888 7.29315555 10.8544-125.7472 161.6896-133.66613333 163.91964445 0 15.74684445 106.96248889 164.80711111 110.43271111 180.11022222 14.85937778v-0.09102222c0.7168-4.72177778 1.16053333-9.61422222 1.25155556-14.76835556-0.35271111-2.49173333-0.62577778-4.89244445-0.88746667-7.38417777-0.44373333-4.44871111-0.62577778-8.8064-0.62577778-13.34613333 0-80.896 65.58151111-146.56853333 146.56853334-146.56853334 80.896 0 146.56853333 65.58151111 146.56853333 146.56853334 0 4.53973333-0.18204445 8.89742222-0.62577778 13.34613333-0.26168889 2.49173333-0.53475555 4.89244445-0.88746667 7.38417777 0.26168889-2.048 0.53475555-4.00497778 0.9784889-5.87093333 17.70382222-98.33813333 153.6-75.01368889 162.4064 5.87093333 10.59271111 98.15608889 144.0768 125.7472 181.89653333 0 0.09102222-2.58275555 0.18204445-4.98346667 0.26168889-7.56622222-2.92408889-106.42773333-39.67431111-204.58382222-100.19271112-283.78453333z" fill="#A14C36" p-id="15788"></path><path d="M339.91111111 219.40906667l-10.14897778 5.87093333c-6.144 3.56124445-14.06293333 1.42222222-17.62417778-4.72177778l-36.6592-63.45386667c-3.56124445-6.144-1.42222222-14.06293333 4.72177778-17.62417777l10.14897778-5.87093333c6.144-3.56124445 14.06293333-1.42222222 17.62417778 4.72177777l36.6592 63.45386667c3.47022222 6.144 1.42222222 14.06293333-4.72177778 17.62417778zM285.80977778 432.45795555l-10.14897778 5.87093334c-6.144 3.56124445-14.06293333 1.42222222-17.62417778-4.72177778l-36.6592-63.45386666c-3.56124445-6.144-1.42222222-14.06293333 4.72177778-17.62417778l10.14897778-5.87093334c6.144-3.56124445 14.06293333-1.42222222 17.62417777 4.72177778l36.6592 63.45386667c3.56124445 6.22364445 1.51324445 14.06293333-4.72177777 17.62417777zM932.22684445 438.23786667l-10.14897778 5.87093333c-6.144 3.56124445-14.06293333 1.42222222-17.62417778-4.72177778l-36.6592-63.45386667c-3.56124445-6.144-1.42222222-14.06293333 4.72177778-17.62417777l10.14897778-5.87093333c6.144-3.56124445 14.06293333-1.42222222 17.62417777 4.72177777l36.6592 63.45386667c3.47022222 6.23502222 1.42222222 14.06293333-4.72177777 17.62417778zM750.06862222 237.29493333l-10.14897777 5.87093334c-6.144 3.56124445-14.06293333 1.42222222-17.62417778-4.72177778l-36.6592-63.45386667c-3.56124445-6.144-1.42222222-14.06293333 4.72177778-17.62417777l10.14897777-5.87093334c6.144-3.56124445 14.06293333-1.42222222 17.62417778 4.72177778l36.6592 63.45386666c3.54986667 6.23502222 1.42222222 14.07431111-4.72177778 17.62417778zM566.65884445 297.99537778l-10.14897778 5.87093333c-6.144 3.56124445-14.06293333 1.42222222-17.62417778-4.72177778l-36.6592-63.45386666c-3.56124445-6.144-1.42222222-14.06293333 4.72177778-17.62417778l10.14897778-5.87093334c6.144-3.56124445 14.06293333-1.42222222 17.62417777 4.72177778l36.6592 63.45386667c3.56124445 6.144 1.42222222 14.06293333-4.72177777 17.62417778z" fill="#FFC1E2" p-id="15789"></path><path d="M316.06328889 89.04248889c-37.72871111-15.21208889-212.95786667 141.67608889-166.59342222 307.18862222-10.49031111-7.73688889 68.08462222-222.91342222 166.59342222-307.18862222z" fill="#C9705F" p-id="15790"></path></svg>