<?xml version="1.0" standalone="no"?><!DOCTYPE svg PUBLIC "-//W3C//DTD SVG 1.1//EN" "http://www.w3.org/Graphics/SVG/1.1/DTD/svg11.dtd"><svg t="1652094832054" class="icon" viewBox="0 0 1024 1024" version="1.1" xmlns="http://www.w3.org/2000/svg" p-id="14649" xmlns:xlink="http://www.w3.org/1999/xlink" width="200" height="200"><defs><style type="text/css">@font-face { font-family: feedback-iconfont; src: url("//at.alicdn.com/t/font_1031158_u69w8yhxdu.woff2?t=1630033759944") format("woff2"), url("//at.alicdn.com/t/font_1031158_u69w8yhxdu.woff?t=1630033759944") format("woff"), url("//at.alicdn.com/t/font_1031158_u69w8yhxdu.ttf?t=1630033759944") format("truetype"); }
</style></defs><path d="M520 425.855c-6-0.581-12.699-1.37-19.005-2.359-6.302 0.987-11.995 1.776-18.995 2.358V467h38v-41.145z" fill="#808C9B" p-id="14650"></path><path d="M268.539 908.416c0 28.973 23.487 52.584 52.46 52.584h361.393c28.973 0 52.46-23.611 52.46-52.584L774.927 552H228.465l40.074 356.416zM482.396 467H221.543l7.286 58h545.733l7.287-58H520.35z" fill="#BDCCD4" p-id="14651"></path><path d="M520.35 425.855c84.902 7.779 172.508-20.819 237.506-85.818 72.825-72.825 99.961-174.029 81.429-268.013-93.984-18.532-195.188 8.604-268.013 81.429-32.28 32.28-55.576 70.139-69.904 110.47-14.328-40.332-37.624-78.19-69.904-110.47-72.825-72.825-174.029-99.961-268.013-81.429-18.532 93.984 8.604 195.188 81.429 268.013 65.001 65.001 152.611 93.599 237.516 85.817 6.343-0.581 12.67-1.37 18.972-2.358a297.673 297.673 0 0 0 18.982 2.359z" fill="#66C6AC" p-id="14652"></path></svg>