<?xml version="1.0" standalone="no"?><!DOCTYPE svg PUBLIC "-//W3C//DTD SVG 1.1//EN" "http://www.w3.org/Graphics/SVG/1.1/DTD/svg11.dtd"><svg t="1652094853073" class="icon" viewBox="0 0 1024 1024" version="1.1" xmlns="http://www.w3.org/2000/svg" p-id="15451" xmlns:xlink="http://www.w3.org/1999/xlink" width="200" height="200"><defs><style type="text/css">@font-face { font-family: feedback-iconfont; src: url("//at.alicdn.com/t/font_1031158_u69w8yhxdu.woff2?t=1630033759944") format("woff2"), url("//at.alicdn.com/t/font_1031158_u69w8yhxdu.woff?t=1630033759944") format("woff"), url("//at.alicdn.com/t/font_1031158_u69w8yhxdu.ttf?t=1630033759944") format("truetype"); }
</style></defs><path d="M755.6 643.7L611 770.7l-252 33.1-122.9-160.1 14-36.1L418.2 254l35.7-75 23.6-49.8c7.3-15.5 29.4-15.5 36.7 0l227.4 478.4 14 36.1z" fill="#FFCF48" p-id="15452"></path><path d="M484.9 219.6c0 23.3-18.9 42.2-42.2 42.2-9.1 0-17.6-2.9-24.5-7.9l35.7-75c17.9 4.9 31 21.3 31 40.7z" fill="#FFA233" p-id="15453"></path><path d="M335.4 544.2m-54.7 0a54.7 54.7 0 1 0 109.4 0 54.7 54.7 0 1 0-109.4 0Z" fill="#F4A240" p-id="15454"></path><path d="M742 643.7l-49 43.1-37.9-16.3-178.3-540.4 11-23L728 607.6z" fill="#F4A240" p-id="15455"></path><path d="M688.4 599S568.7 750.6 402.5 731.8c0 0 252.7 14.1 293.3-30.1 40.6-44.2-7.4-102.7-7.4-102.7z" fill="#F4A240" p-id="15456"></path><path d="M323.6 535.2m-38.9 0a38.9 38.9 0 1 0 77.8 0 38.9 38.9 0 1 0-77.8 0Z" fill="#DD4A36" p-id="15457"></path><path d="M359 835.8c-9.9 0-19.3-4.6-25.4-12.5L210.7 663.2c-6.8-8.9-8.5-20.7-4.4-31.1l14-36.1 0.9-2.1 226.7-477c8.9-18.7 27.2-30.3 47.9-30.3s39.1 11.6 47.9 30.3l226.7 477 0.9 2.1 14 36.1c4.9 12.5 1.4 26.8-8.7 35.6L632 794.7c-4.8 4.2-10.7 6.9-16.9 7.7l-252 33.1c-1.3 0.2-2.7 0.3-4.1 0.3z m252-65.1zM272.5 638.5l100.7 131.2 224-29.5 120.5-105.8-5.5-14.1-216.3-455.2-216.4 455.2-7 18.2z" fill="#331008" p-id="15458"></path><path d="M816 762.7c-86.2 73.5-198 117.9-320.2 117.9-122.2 0-234-44.4-320.2-117.9-20.4-17.4-28.8-44.8-21.9-70.2 0.6-2.3 1.4-4.6 2.3-6.9l0.1-0.2c16-41.1 65.1-55.7 100.9-32.8 2.7 1.7 5.3 3.6 7.8 5.8 62.2 53 142.9 85 231 85s168.8-32 231-85c36.1-30.7 91.6-17.2 108.7 27l0.1 0.2c10.6 27.3 2.7 58.2-19.6 77.1z" fill="#FFA233" p-id="15459"></path><path d="M816 762.7c-86.2 73.5-198 117.9-320.2 117.9-122.2 0-234-44.4-320.2-117.9-9.5-8.1-16.3-18.3-20.3-29.5 79.1 53.9 174.7 85.5 277.7 85.5 122.2 0 234-44.4 320.2-117.9 17.4-14.8 26-36.9 23.9-58.8 24.9 2 48.3 17.4 58.4 43.4l0.1 0.2c10.6 27.3 2.7 58.2-19.6 77.1z" fill="#FF8533" p-id="15460"></path><path d="M451 748.6c-62.7 55.3-281-122.1-249.2 12.8 0 0-42.5-46.4-48-68.8 0.6-2.3 1.4-4.6 2.3-6.9l0.1-0.2c16-41.1 65.1-55.7 100.9-32.8 12.9 11.4 104.3 63.4 193.9 95.9z" fill="#FFBF3E" p-id="15461"></path><path d="M495.9 912.7c-63.6 0-125.8-11.2-184.8-33.4-57-21.4-109.6-52.4-156.1-92.1-32.6-27.8-44.1-73.3-28.7-113.1l0.1-0.2c11.9-30.6 37-52.8 68.9-60.9 31.7-8 65.4-0.1 90.4 21.2 58.5 49.9 133.2 77.3 210.2 77.3s151.7-27.5 210.2-77.3C731 613 764.8 605 796.5 613c31.9 8 57 30.3 68.9 60.9l0.1 0.3c15.4 39.8 3.9 85.2-28.7 113-46.5 39.7-99.1 70.7-156.1 92.2-59 22-121.2 33.3-184.8 33.3zM220.1 673.8c-3 0-6.1 0.4-9.2 1.1-11.5 2.9-20.6 11-24.9 22.1l-0.1 0.2c-5.6 14.4-1.4 31 10.6 41.2 40.9 34.9 87 62.1 137.1 80.9 51.8 19.5 106.4 29.3 162.3 29.3 55.9 0 110.5-9.9 162.3-29.3 50.1-18.8 96.2-46 137.1-80.9 11.9-10.2 16.2-26.7 10.5-41.2l-0.1-0.3c-4.3-11.1-13.4-19.1-24.9-22-11.8-3-23.9-0.1-33.2 7.8-34.4 29.3-73.2 52.2-115.3 68-43.6 16.4-89.5 24.7-136.5 24.7-46.9 0-92.9-8.3-136.5-24.7-42.1-15.8-80.9-38.7-115.3-68-6.8-5.8-15.2-8.9-23.9-8.9z" fill="#331008" p-id="15462"></path><path d="M477.5 323m-67 0a67 67 0 1 0 134 0 67 67 0 1 0-134 0Z" fill="#F4A240" p-id="15463"></path><path d="M618.1 520.5m-46.4 0a46.4 46.4 0 1 0 92.8 0 46.4 46.4 0 1 0-92.8 0Z" fill="#F4A240" p-id="15464"></path><path d="M460.6 319.6m-49.7 0a49.7 49.7 0 1 0 99.4 0 49.7 49.7 0 1 0-99.4 0Z" fill="#DD4A36" p-id="15465"></path><path d="M460.6 389.3c-38.4 0-69.7-31.3-69.7-69.7s31.3-69.7 69.7-69.7 69.7 31.3 69.7 69.7-31.3 69.7-69.7 69.7z m0-99.4c-16.4 0-29.7 13.3-29.7 29.7s13.3 29.7 29.7 29.7 29.7-13.3 29.7-29.7-13.3-29.7-29.7-29.7z" fill="#331008" p-id="15466"></path><path d="M600.5 503.5m-43.2 0a43.2 43.2 0 1 0 86.4 0 43.2 43.2 0 1 0-86.4 0Z" fill="#35752C" p-id="15467"></path><path d="M600.5 566.7c-34.9 0-63.2-28.4-63.2-63.2s28.4-63.2 63.2-63.2 63.2 28.4 63.2 63.2-28.3 63.2-63.2 63.2z m0-86.4c-12.8 0-23.2 10.4-23.2 23.2s10.4 23.2 23.2 23.2 23.2-10.4 23.2-23.2-10.4-23.2-23.2-23.2zM318.9 601.3c-23.8 0-46-13.9-56.3-35.4-1.3-2.7-2-5.7-2-8.7 0-11 9-20 20-20 8.1 0 15.1 4.8 18.2 11.7 3.9 7.6 11.5 12.3 20.1 12.3 12.4 0 22.5-10.1 22.5-22.5s-10.1-22.5-22.5-22.5c-1.8 0-3.5 0.2-5.2 0.6-10.7 2.6-21.5-4-24.2-14.7-2.6-10.7 4-21.5 14.7-24.2 4.8-1.2 9.7-1.7 14.6-1.7 34.5 0 62.5 28 62.5 62.5 0.1 34.5-27.9 62.6-62.4 62.6z" fill="#331008" p-id="15468"></path><path d="M493 626.5m-51.8 0a51.8 51.8 0 1 0 103.6 0 51.8 51.8 0 1 0-103.6 0Z" fill="#FFA233" p-id="15469"></path><path d="M452.5 483.2m-30.3 0a30.3 30.3 0 1 0 60.6 0 30.3 30.3 0 1 0-60.6 0Z" fill="#FFA233" p-id="15470"></path></svg>