<?xml version="1.0" standalone="no"?><!DOCTYPE svg PUBLIC "-//W3C//DTD SVG 1.1//EN" "http://www.w3.org/Graphics/SVG/1.1/DTD/svg11.dtd"><svg t="1652094844865" class="icon" viewBox="0 0 1024 1024" version="1.1" xmlns="http://www.w3.org/2000/svg" p-id="15131" xmlns:xlink="http://www.w3.org/1999/xlink" width="200" height="200"><defs><style type="text/css">@font-face { font-family: feedback-iconfont; src: url("//at.alicdn.com/t/font_1031158_u69w8yhxdu.woff2?t=1630033759944") format("woff2"), url("//at.alicdn.com/t/font_1031158_u69w8yhxdu.woff?t=1630033759944") format("woff"), url("//at.alicdn.com/t/font_1031158_u69w8yhxdu.ttf?t=1630033759944") format("truetype"); }
</style></defs><path d="M124.3 503.4c0 18.3 7.4 34.9 19.5 46.9 12 12 28.6 19.5 47 19.5h637.6c36.6 0 66.4-29.7 66.4-66.4 0-18.4-7.4-35-19.5-47-8-8-17.8-13.9-29-16.9v-20.6c0-176.7-143.2-320-320-320h-36c-176.8 0-320 143.3-320 320v21.3c-26.8 8.7-46 33.7-46 63.2z" fill="#FCC683" p-id="15132"></path><path d="M118.2 502.7c-1 37.5 31.7 68.1 69.2 68.1h71.9s-0.1-0.5-0.2-1.5h498.3c-0.2 0.5-0.2 0.9-0.2 0.9h71.9c37.5 0 70.2-30.6 69.2-68.1-0.4-17.7-7.8-33.6-19.5-45.3-8-8-17.8-13.9-29-16.9v-20.6c0-176.8-143.2-320-320-320h-36c0.9 0.2 1.9 0.4 2.7 0.7h-9.9c-176.8 0-320 143.3-320 320v20.6c-11.2 3.1-21 9-29 16.9-11.7 11.6-19 27.5-19.4 45.2zM323.6 468c-38 0-66.8-34.1-60.7-71.7 3.6-22 8.7-44.8 15.8-67.5 70.1-224.3 389.8-223.9 459.2 0.5 7 22.6 12.1 45.2 15.6 67.1C759.8 433.9 731 468 693 468H323.6z" fill="#F1B97B" p-id="15133"></path><path d="M191.5 569.8c46 119.9 162.4 205.1 298.7 205.1h36c136.3 0 252.7-85.2 298.7-205.1H191.5z" fill="#FFFFFF" p-id="15134"></path><path d="M526.2 797.3h-36c-140.8 0-269.2-88.2-319.6-219.5-2.6-6.9-1.7-14.6 2.4-20.7 4.2-6.1 11.1-9.7 18.4-9.7h633.4c7.4 0 14.2 3.6 18.4 9.7 4.2 6.1 5.1 13.8 2.4 20.7C795.4 709.1 667 797.3 526.2 797.3zM226.1 592.1c50.6 97.2 153 160.4 264.2 160.4h36c111.2 0 213.5-63.3 264.2-160.4H226.1z" fill="#221E1F" p-id="15135"></path><path d="M189.2 596.7l78.3 244.7c7.2 22.6 28.2 37.9 51.9 37.9h380.1c23.7 0 44.7-15.3 51.9-37.9l78.3-244.7c4.3-13.3-5.7-26.8-19.6-26.8H208.8c-14 0-23.9 13.5-19.6 26.8z" fill="#EDECEC" p-id="15136"></path><path d="M318.7 596.1l66.7 244.7c6.2 22.6 24.1 37.9 44.3 37.9h157.1c20.2 0 38.1-15.3 44.3-37.9l66.7-244.7c3.6-13.3-4.8-26.8-16.7-26.8H335.4c-11.9-0.1-20.3 13.5-16.7 26.8z" fill="#FCFAFB" p-id="15137"></path><path d="M246.7 848l-78.3-244.7c-4.1-12.9-1.8-27.1 6.1-38 8-10.9 20.8-17.4 34.3-17.4h601.5c13.5 0 26.3 6.5 34.3 17.4 8 10.9 10.3 25.1 6.1 38L772.3 848c-10.2 31.8-39.4 53.1-72.8 53.1h-380c-33.4 0-62.6-21.3-72.8-53.1z m-36.1-256.3l77.8 243c4.4 13.6 16.9 22.7 31.1 22.7h380.1c14.3 0 26.8-9.1 31.1-22.7l77.8-243H210.6zM846.3 459.3h-49.5c-12.3 0-22.3-10-22.3-22.3s10-22.3 22.3-22.3h49.5c12.3 0 22.3 10 22.3 22.3s-10 22.3-22.3 22.3zM221 462.6h-49.5c-12.3 0-22.3-10-22.3-22.3s10-22.3 22.3-22.3H221c12.3 0 22.3 10 22.3 22.3s-10 22.3-22.3 22.3z" fill="#221E1F" p-id="15138"></path><path d="M397.2 901.6c-10.7 0-20.2-7.7-22-18.6l-32.5-191.4c-2.1-12.2 6.1-23.7 18.3-25.8 12.3-2.1 23.7 6.1 25.8 18.3l32.5 191.4c2.1 12.2-6.1 23.7-18.3 25.8-1.3 0.2-2.5 0.3-3.8 0.3zM622 901.6c-1.2 0-2.5-0.1-3.8-0.3-12.2-2.1-20.4-13.6-18.3-25.8l32.5-191.4c2.1-12.2 13.6-20.4 25.8-18.3 12.2 2.1 20.4 13.6 18.3 25.8L644 883c-1.8 10.9-11.3 18.6-22 18.6zM509.5 895.9c-12.3 0-22.3-10-22.3-22.3V672.2c0-12.3 10-22.3 22.3-22.3s22.3 10 22.3 22.3v201.3c0.1 12.4-9.9 22.4-22.3 22.4zM594.4 462.6H424.6c-12.3 0-22.3-10-22.3-22.3s10-22.3 22.3-22.3h169.9c12.3 0 22.3 10 22.3 22.3s-10 22.3-22.4 22.3z" fill="#221E1F" p-id="15139"></path><path d="M287.4 324.5c5.4 0 10.9-2.1 15-6.2l13.1-13.1c8.3-8.3 8.3-21.7 0-30s-21.7-8.3-30 0l-13.1 13.1c-8.3 8.3-8.3 21.7 0 30 4.1 4.2 9.6 6.2 15 6.2zM424.6 378.6c5.4 0 10.8-2.1 15-6.2 8.3-8.3 8.3-21.7 0-30l-13.1-13.1c-8.3-8.3-21.7-8.3-30 0s-8.3 21.7 0 30l13.1 13.1c4.2 4.2 9.6 6.2 15 6.2zM731.6 323.8c-5.4 0-10.9-2.1-15-6.2l-13.1-13.1c-8.3-8.3-8.3-21.7 0-30s21.7-8.3 30 0l13.1 13.1c8.3 8.3 8.3 21.7 0 30-4.1 4.2-9.5 6.2-15 6.2zM594.4 377.9c-5.4 0-10.8-2.1-15-6.2-8.3-8.3-8.3-21.7 0-30l13.1-13.1c8.3-8.3 21.7-8.3 30 0s8.3 21.7 0 30l-13.1 13.1c-4.1 4.2-9.5 6.2-15 6.2zM537.3 225.3c0 5.4-2.1 10.8-6.2 15-8.3 8.3-21.7 8.3-30 0L488 227.2c-8.3-8.3-8.3-21.7 0-30s21.7-8.3 30 0l13.1 13.1c4.1 4.1 6.2 9.6 6.2 15z" fill="#E07659" p-id="15140"></path><path d="M128.3 565.8c-16.7-16.7-25.9-38.8-25.9-62.4 0-32.8 17.9-62.3 45.9-77.5v-7C148.3 230.4 301.7 77 490.2 77h36c188.5 0 341.9 153.4 341.9 341.9v5.7c8.3 4.2 15.9 9.7 22.6 16.4 16.7 16.7 25.9 38.9 25.9 62.5 0 48.7-39.6 88.2-88.2 88.2H190.8c-23.7 0-45.8-9.2-62.5-25.9z m361.9-445.1C325.8 120.7 192 254.5 192 418.9v37.2l-15 4.9c-18.4 6-30.8 23-30.8 42.4 0 11.9 4.6 23 13.1 31.4 8.4 8.4 19.6 13.1 31.5 13.1h637.6c24.5 0 44.5-20 44.5-44.5 0-11.9-4.6-23.1-13.1-31.6-5.5-5.5-12-9.3-19.3-11.3l-16.1-4.4v-37.2c0-164.4-133.8-298.2-298.2-298.2h-36z" fill="#221E1F" p-id="15141"></path></svg>