<?xml version="1.0" standalone="no"?><!DOCTYPE svg PUBLIC "-//W3C//DTD SVG 1.1//EN" "http://www.w3.org/Graphics/SVG/1.1/DTD/svg11.dtd"><svg t="1652094849796" class="icon" viewBox="0 0 1024 1024" version="1.1" xmlns="http://www.w3.org/2000/svg" p-id="15294" xmlns:xlink="http://www.w3.org/1999/xlink" width="200" height="200"><defs><style type="text/css">@font-face { font-family: feedback-iconfont; src: url("//at.alicdn.com/t/font_1031158_u69w8yhxdu.woff2?t=1630033759944") format("woff2"), url("//at.alicdn.com/t/font_1031158_u69w8yhxdu.woff?t=1630033759944") format("woff"), url("//at.alicdn.com/t/font_1031158_u69w8yhxdu.ttf?t=1630033759944") format("truetype"); }
</style></defs><path d="M874.7 671.7c0.2-0.6 0.5-1.2 0.7-1.9 0.9-2.4 1.9-4.8 2.7-7.2 0.2-0.4 0.3-0.9 0.5-1.3l2.1-6c0.3-0.8 0.6-1.7 0.9-2.5 0.7-2.2 1.5-4.4 2.1-6.6l0.9-3 1.2-4.2c0.3-1.2 0.7-2.4 1-3.6 0.4-1.6 0.8-3.1 1.3-4.7 0.5-1.9 1-3.8 1.4-5.6l0.6-2.4c1.2-5.2 2.3-10.3 3.3-15.6 0.1-0.3 0.1-0.6 0.2-0.9 1-5.6 2-11.1 2.8-16.8H772c-8.3 0-15-6.7-15-15s6.7-15 15-15h127.4c0.1-1.6 0.2-3.1 0.2-4.7 0.1-1.9 0.2-3.8 0.2-5.7 0-0.9 0-1.7 0.1-2.6 0.1-2.5 0.1-5 0.1-7.6v-20H123v20c0 2.5 0 5 0.1 7.6 0 0.9 0 1.7 0.1 2.6 0.1 1.9 0.1 3.8 0.2 5.7 0.1 1.6 0.1 3.1 0.2 4.7h578.3c8.3 0 15 6.7 15 15s-6.7 15-15 15H126.5c0.3 2.4 0.7 4.9 1.1 7.3 0 0.3 0.1 0.5 0.1 0.8 0.4 2.2 0.7 4.5 1.2 6.7l0.3 1.8c0.4 2 0.7 3.9 1.1 5.9 0.2 1 0.4 1.9 0.6 2.9 0.4 1.7 0.7 3.4 1.1 5.1h88.6c8.3 0 15 6.7 15 15s-6.7 15-15 15h-80.2c0.8 2.4 1.6 4.7 2.4 7.1 0.1 0.2 0.2 0.5 0.3 0.7 0.7 2.1 1.5 4.2 2.3 6.4 0.3 0.8 0.6 1.7 0.9 2.5 0.6 1.6 1.2 3.2 1.9 4.8 1 2.5 2 5.1 3.1 7.6 0.1 0.3 0.3 0.6 0.4 0.9h89c8.3 0 15 6.7 15 15s-6.7 15-15 15h-74.5c5.6 10.3 11.6 20.3 18.2 30h76.3c8.3 0 15 6.7 15 15s-6.7 15-15 15H207c1.7 2 3.4 4 5.2 6 1.7 1.9 3.4 3.9 5.2 5.8l1.2 1.2c1.4 1.5 2.8 3 4.2 4.6 1.9 2 3.8 3.9 5.7 5.9 2.2 2.2 4.4 4.4 6.7 6.5h65.5c8.3 0 15 6.7 15 15s-6.7 15-15 15H271c7.6 5.5 15.4 10.8 23.4 15.7 0.2 0.1 0.3 0.2 0.5 0.3 1.6 1 3.2 1.9 4.8 2.9l2.1 1.2c1.4 0.8 2.9 1.7 4.3 2.5l2.7 1.5c1.3 0.7 2.7 1.5 4 2.2 1 0.6 2.1 1.1 3.2 1.7 1.3 0.7 2.5 1.3 3.8 2h50.8c8.3 0 15 6.7 15 15 0 3.7-1.3 7.1-3.5 9.7 2 0.6 4.1 1.2 6.1 1.7 5.9 1.6 11.9 3.1 17.9 4.4 0.5 0.1 0.9 0.2 1.4 0.3 5.4 1.2 10.8 2.2 16.3 3.1 0.9 0.1 1.8 0.3 2.7 0.4 1.5 0.2 3 0.5 4.5 0.7 1.2 0.2 2.5 0.3 3.7 0.5 1.9 0.3 3.8 0.5 5.7 0.7l5.1 0.6c1.1 0.1 2.2 0.2 3.4 0.3 1.7 0.2 3.4 0.3 5.1 0.4 0.9 0.1 1.9 0.2 2.8 0.2 2.5 0.2 5.1 0.3 7.6 0.5 0.7 0 1.4 0.1 2.1 0.1 2.1 0.1 4.1 0.2 6.2 0.2 0.8 0 1.6 0 2.4 0.1 2.7 0.1 5.4 0.1 8.1 0.1h57c48.6 0 95.7-9.6 140.1-28.3 42.8-18.2 81.3-44.2 114.4-77.2s59.1-71.5 77.2-114.4c0.8-2.3 1.8-4.8 2.8-7.3z" fill="#E9B59B" p-id="15295"></path><path d="M264 543.5c0-17.1 1.1-34 3.2-50.5h-150c-2.1 16.5-3.2 33.4-3.2 50.5C114 764.1 292.9 943 513.5 943c25.6 0 50.7-2.4 75-7C403.7 900.9 264 738.5 264 543.5z" fill="#D38B6C" p-id="15296"></path><path d="M759.5 543.5c0-17.1-1.1-34-3.2-50.5h150c2.1 16.5 3.2 33.4 3.2 50.5C909.5 764.1 730.6 943 510 943c-25.6 0-50.7-2.4-75-7 184.8-35.1 324.5-197.5 324.5-392.5z" fill="#FFD7BD" p-id="15297"></path><path d="M900 459H569.4V313.3l370.7-83.6c16.2-3.7 26.3-19.7 22.7-35.9-3.7-16.2-19.7-26.3-35.9-22.7l-357.5 80.6v-36.4l347.2-123c15.7-5.5 23.8-22.7 18.3-38.3-5.5-15.7-22.7-23.8-38.3-18.3L567 152.4c-4.6-10.7-15.2-18.1-27.6-18.1-16.6 0-30 13.4-30 30v8.5L466.3 188c-4.9-9.9-15.1-16.8-26.9-16.8-16.6 0-30 13.4-30 30v7l-42.1 14.9c-4.4-11.1-15.2-18.9-27.9-18.9-16.6 0-30 13.4-30 30v9.4l-42.7 15.1c-4.7-10.3-15.1-17.5-27.3-17.5-16.6 0-30 13.4-30 30v7.8l-80.8 28.6c-15.7 5.5-23.8 22.7-18.3 38.3 1.7 4.7 4.4 8.7 7.7 11.8-7.4 7-11 17.7-8.6 28.4 3.1 13.9 15.5 23.4 29.2 23.4 2.2 0 4.4-0.2 6.6-0.7l64.2-14.5V459H123c-33.1 0-60 26.9-60 60v20c0 144.7 73.1 272.2 184.4 347.7 0.6 0.5 1.3 0.9 1.9 1.3 66.8 44.9 147.2 71 233.7 71h57c232 0 420-188 420-420v-20c0-33.2-26.9-60-60-60z m-390.6 0h-40V335.8l40-9V459z m-140 0V358.4l40-9V459h-40z m140-193.8l-40 9v-23.6l40-14.2v28.8z m-100 22.6l-40 9v-10.7l40-14.2v15.9z m-100 22.5l-23.1 5.2 23.1-8.2v3z m-40 70.6l40-9V459h-40v-78.1z m525.1 412.6c-33.1 33-71.6 59-114.4 77.2C635.7 889.4 588.6 899 540 899h-57c-34.5 0-68.3-4.8-100.8-14.3 2.2-2.6 3.5-6 3.5-9.7 0-8.3-6.7-15-15-15h-50.8c-17.1-8.7-33.4-18.7-48.8-30h29.7c8.3 0 15-6.7 15-15s-6.7-15-15-15h-65.5c-2.2-2.1-4.5-4.3-6.7-6.5-7.5-7.6-14.7-15.4-21.5-23.5h53.7c8.3 0 15-6.7 15-15s-6.7-15-15-15h-76.3c-6.5-9.7-12.6-19.7-18.2-30h74.5c8.3 0 15-6.7 15-15s-6.7-15-15-15h-89c-0.1-0.3-0.3-0.6-0.4-0.9-4.1-9.6-7.6-19.3-10.8-29.1h80.2c8.3 0 15-6.7 15-15s-6.7-15-15-15h-88.6c-2.3-10.1-4.2-20.2-5.6-30.5H702c8.3 0 15-6.7 15-15s-6.7-15-15-15H123.6c-0.4-6.8-0.6-13.6-0.6-20.5v-20h777v20c0 6.9-0.2 13.7-0.6 20.5H772c-8.3 0-15 6.7-15 15s6.7 15 15 15h124.5c-4.3 30.8-12.6 60.8-24.8 89.6-18.1 42.9-44.1 81.4-77.2 114.4z" fill="#561F00" p-id="15298"></path></svg>