<?xml version="1.0" standalone="no"?><!DOCTYPE svg PUBLIC "-//W3C//DTD SVG 1.1//EN" "http://www.w3.org/Graphics/SVG/1.1/DTD/svg11.dtd"><svg t="1652094840726" class="icon" viewBox="0 0 1024 1024" version="1.1" xmlns="http://www.w3.org/2000/svg" p-id="14969" xmlns:xlink="http://www.w3.org/1999/xlink" width="200" height="200"><defs><style type="text/css">@font-face { font-family: feedback-iconfont; src: url("//at.alicdn.com/t/font_1031158_u69w8yhxdu.woff2?t=1630033759944") format("woff2"), url("//at.alicdn.com/t/font_1031158_u69w8yhxdu.woff?t=1630033759944") format("woff"), url("//at.alicdn.com/t/font_1031158_u69w8yhxdu.ttf?t=1630033759944") format("truetype"); }
</style></defs><path d="M33.666488 229.219839l383.546905 455.717588 379.597758-449.413055-763.144663-6.304533z" fill="#FFFFFF" p-id="14970"></path><path d="M814.991336 212.266711m-172.986791 0a172.986791 172.986791 0 1 0 345.973583 0 172.986791 172.986791 0 1 0-345.973583 0Z" fill="#FFFFFF" p-id="14971"></path><path d="M814.991336 35.528229a176.301255 176.301255 0 0 0-46.346073 6.346845 176.52692 176.52692 0 0 1 0.31029 340.698649 176.597441 176.597441 0 1 0 46.035783-347.045494z" fill="#65A347" p-id="14972"></path><path d="M723.131331 212.266711a197.584342 197.584342 0 0 0 91.860005 166.907924 197.527926 197.527926 0 0 0 0-333.801744 197.556134 197.556134 0 0 0-91.860005 166.89382z" fill="#9BD37A" p-id="14973"></path><path d="M802.057876 217.471124s-143.325868-8.46246-150.392022 0L417.213393 684.937427a12.905252 12.905252 0 0 0 19.745741 0l374.985717-446.239632a12.919356 12.919356 0 0 0-9.886975-21.226671z" fill="#FFAC1F" p-id="14974"></path><path d="M181.54798 241.180117l238.627274 439.892786L658.816633 241.180117c5.09158-9.393331 0.775726-23.737201-7.136675-23.737201H188.684655c-7.926504 0.028208-12.242359 14.372078-7.136675 23.737201z" fill="#FECD57" p-id="14975"></path><path d="M420.175254 718.011542a36.050081 36.050081 0 0 1-27.644036-12.919356L17.531397 258.852554a36.162913 36.162913 0 0 1 27.686349-59.448783h749.900913A36.177017 36.177017 0 0 1 822.790904 258.866658L641.214716 474.997893A23.257662 23.257662 0 1 1 605.587758 445.068992l167.345151-199.135794H67.431704L420.175254 665.713538l120.209248-143.071994A23.257662 23.257662 0 1 1 575.969147 552.612757l-128.079335 152.493533a36.177017 36.177017 0 0 1-27.714558 12.905252z" fill="#231815" p-id="14976"></path><path d="M419.032822 1023.957688a23.257662 23.257662 0 0 1-23.257661-23.257662V701.90466a23.257662 23.257662 0 0 1 46.543531 0v298.837678A23.257662 23.257662 0 0 1 419.032822 1023.957688z" fill="#231815" p-id="14977"></path><path d="M553.600044 1023.957688H281.687093a23.257662 23.257662 0 0 1 0-46.543532h271.912951a23.257662 23.257662 0 0 1 0 46.543532zM399.272978 458.383262a23.173037 23.173037 0 0 1-18.448164-9.068936L63.778742 37.446387A23.257662 23.257662 0 1 1 100.660964 9.083041l317.046073 411.839731a23.243557 23.243557 0 0 1-18.335331 37.446386zM814.991336 412.276958a199.051169 199.051169 0 0 1-111.239039-33.77932A23.257662 23.257662 0 1 1 729.703841 339.908819a153.494924 153.494924 0 0 0 238.768316-127.642108 23.257662 23.257662 0 0 1 46.543531 0c-0.028208 110.279961-89.730287 200.010248-200.024352 200.010247zM638.266959 235.538476a23.257662 23.257662 0 0 1-23.257662-23.257661c0-110.279961 89.702078-199.996143 199.996144-199.996144a198.684462 198.684462 0 0 1 158.81217 78.404694 23.271766 23.271766 0 0 1-36.938639 28.30693 153.466716 153.466716 0 0 0-275.354352 93.270416 23.257662 23.257662 0 0 1-23.257661 23.271765z" fill="#231815" p-id="14978"></path></svg>